<svg version="1.1" xmlns="http://www.w3.org/2000/svg" xmlns:xlink="http://www.w3.org/1999/xlink" width="192.20672" height="192.6445" viewBox="0,0,192.20672,192.6445"><g transform="translate(-143.84004,-83.68234)"><g data-paper-data="{&quot;isPaintingLayer&quot;:true}" fill-rule="nonzero" stroke="#ffffff" stroke-width="0.5" stroke-linecap="butt" stroke-linejoin="miter" stroke-miterlimit="10" stroke-dasharray="" stroke-dashoffset="0" style="mix-blend-mode: normal"><path d="M294.39052,180c0,30.09132 -24.35147,54.48515 -54.39052,54.48515c-30.03905,0 -54.39052,-24.39383 -54.39052,-54.48515c0,-30.09132 24.35147,-54.48515 54.39052,-54.48515c30.03905,0 54.39052,24.39383 54.39052,54.48515z" fill="#ffffff"/><path d="M181.08721,160.9951c2.88047,-8.96714 7.74454,-17.04294 14.07451,-23.70882" fill="none"/><path d="M202.49162,130.69942c7.59158,-5.80472 16.56366,-9.88984 26.33694,-11.67504" fill="none"/><path d="M238.62868,118.03169c0.45591,-0.00993 0.91303,-0.01492 1.37132,-0.01492c11.98515,0 23.17441,3.41349 32.65183,9.3229" fill="none"/><path d="M280.52346,133.15802c5.50967,4.78723 10.16629,10.53369 13.7109,16.97998" fill="none"/><path d="M298.32832,159.26422c2.29697,6.48345 3.54725,13.46335 3.54725,20.73578c0,1.7046 -0.06869,3.39312 -0.20345,5.06295" fill="none"/><path d="M300.06754,194.9349c-1.99161,8.06475 -5.55944,15.50692 -10.3572,21.9796" fill="none"/><path d="M283.83735,223.74373c-9.95315,10.00895 -23.29978,16.62916 -38.16505,17.98253" fill="none"/><path d="M236.7797,241.90073c-13.69765,-0.70351 -26.21847,-5.86931 -36.14209,-14.07458" fill="none"/><path d="M193.57501,220.9784c-9.61637,-10.92402 -15.45058,-25.2687 -15.45058,-40.9784c0,-3.14875 0.23438,-6.24266 0.68662,-9.26519" fill="none"/><path d="M200.48963,120.7213c2.92606,-1.96096 6.00542,-3.71028 9.21626,-5.22612" fill="none"/><path d="M217.67167,112.31054c7.02235,-2.32322 14.52877,-3.58046 22.32833,-3.58046c5.22242,0 10.31342,0.56367 15.21568,1.63359" fill="none"/><path d="M264.68596,113.13713c11.86527,4.39754 22.24005,11.87383 30.15793,21.46078" fill="none"/><path d="M300.62915,142.68868c5.28642,8.60176 8.79972,18.41389 10.02965,28.92526" fill="none"/><path d="M311.13025,181.5211c-0.17381,8.31555 -1.76937,16.2809 -4.55301,23.66194" fill="none"/><path d="M302.40067,214.26216c-4.77434,8.70713 -11.31194,16.30679 -19.13116,22.31653" fill="none"/><path d="M275.00959,242.05836c-10.33632,5.86403 -22.28271,9.21156 -35.00959,9.21156c-4.82701,0 -9.54174,-0.48154 -14.09893,-1.39929" fill="none"/><path d="M216.26314,247.20692c-15.21717,-5.39339 -28.05661,-15.82609 -36.51968,-29.29598" fill="none"/><path d="M175.03519,209.09977c-2.81716,-6.30153 -4.74747,-13.08768 -5.63189,-20.19912" fill="none"/><path d="M168.86142,178.95087c0.1482,-10.28827 2.47261,-20.04891 6.53278,-28.84068" fill="none"/><path d="M180.21335,141.35126c3.4682,-5.37265 7.63844,-10.24802 12.38069,-14.49586" fill="none"/><path d="M178.33866,123.72723c6.17156,-6.78219 13.44314,-12.5424 21.53214,-16.99754" fill="none"/><path d="M208.52805,102.59428c3.05172,-1.24637 6.19367,-2.31691 9.41331,-3.19904" fill="none"/><path d="M227.13077,97.43067c4.19465,-0.65074 8.49258,-0.9884 12.86923,-0.9884c5.12242,0 10.137,0.46254 15.00438,1.3482" fill="none"/><path d="M263.87308,99.91471c9.25532,2.76452 17.83667,7.09512 25.43773,12.68493" fill="none"/><path d="M296.5779,118.60166c8.03933,7.43764 14.61474,16.4398 19.24441,26.52384" fill="none"/><path d="M319.24691,153.85179c2.50117,7.61104 3.94017,15.70526 4.14127,24.10664" fill="none"/><path d="M323.05877,187.74783c-1.23736,13.4813 -5.6716,26.03547 -12.5365,36.89496" fill="none"/><path d="M304.68668,232.75786c-9.76331,11.99803 -22.78678,21.22846 -37.71729,26.33584" fill="none"/><path d="M257.52745,261.70987c-3.39671,0.72764 -6.87008,1.24813 -10.40628,1.54762" fill="none"/><path d="M237.3253,263.51558c-11.287,-0.35617 -22.00846,-2.9586 -31.73366,-7.37583" fill="none"/><path d="M197.8307,252.1089c-4.54039,-2.67023 -8.80623,-5.75848 -12.74484,-9.212" fill="none"/><path d="M178.06781,235.97368c-1.98448,-2.20199 -3.85359,-4.51033 -5.59778,-6.91545" fill="none"/><path d="M167.51644,221.37787c-2.36884,-4.1551 -4.3919,-8.53356 -6.02992,-13.09603" fill="none"/><path d="M158.68022,198.68227c-1.36949,-6.00666 -2.09281,-12.25985 -2.09281,-18.68227c0,-4.75577 0.39662,-9.41875 1.15854,-13.95755" fill="none"/><path d="M159.93515,156.48774c2.64754,-9.0618 6.78652,-17.48558 12.13271,-24.98658" fill="none"/><path d="M304.07741,108.51078c6.77533,6.09807 12.67904,13.1487 17.50107,20.94147" fill="none"/><path d="M326.15702,137.73857c5.55138,11.33545 8.93913,23.92698 9.6239,37.2343" fill="none"/><path d="M335.79677,184.70912c-0.41949,8.70678 -1.99596,17.10949 -4.57872,25.0572" fill="none"/><path d="M327.67033,219.01933c-1.65515,3.72624 -3.54009,7.32743 -5.6368,10.78552" fill="none"/><path d="M316.54907,237.89323c-4.05523,5.37226 -8.66104,10.30426 -13.73331,14.71176" fill="none"/><path d="M297.15372,257.1621c-7.73877,5.76149 -16.37413,10.38238 -25.65821,13.61437" fill="none"/><path d="M262.34288,273.45604c-7.16888,1.71353 -14.65011,2.62079 -22.34288,2.62079c-1.0395,0 -2.07513,-0.01657 -3.10665,-0.04945" fill="none"/><path d="M227.05155,275.20871c-10.39936,-1.40589 -20.26995,-4.48137 -29.33404,-8.94827" fill="none"/><path d="M189.01487,261.39197c-6.70034,-4.22069 -12.84276,-9.24864 -18.2913,-14.94765" fill="none"/><path d="M164.20448,238.87828c-3.21634,-4.14889 -6.1007,-8.5689 -8.61314,-13.22003" fill="none"/><path d="M151.31545,216.65048c-3.45104,-8.37051 -5.7555,-17.33617 -6.71732,-26.7006" fill="none"/><path d="M144.103,181.59526c-0.00862,-0.53072 -0.01295,-1.06248 -0.01295,-1.59526c0,-9.25809 1.30721,-18.21033 3.74682,-26.68162" fill="none"/><path d="M151.10482,143.86466c4.38047,-10.80298 10.66634,-20.62704 18.4398,-29.05361" fill="none"/><path d="M176.1849,108.27555c6.01247,-5.37187 12.7047,-9.99643 19.93135,-13.7281" fill="none"/><path d="M204.90935,90.55695c8.31133,-3.27468 17.18939,-5.42044 26.44602,-6.24881" fill="none"/><path d="M241.33892,83.93234c9.83494,0.1348 19.31223,1.7525 28.21918,4.64001" fill="none"/><path d="M278.89675,92.15272c6.17862,2.74937 12.0133,6.13365 17.42152,10.07016" fill="#E5DCC5"/></g></g></svg>