<?xml version="1.0" encoding="UTF-8" standalone="no" ?>
<!DOCTYPE svg PUBLIC "-//W3C//DTD SVG 1.1//EN" "http://www.w3.org/Graphics/SVG/1.1/DTD/svg11.dtd">
<svg xmlns="http://www.w3.org/2000/svg" xmlns:xlink="http://www.w3.org/1999/xlink" version="1.1" width="1080" height="1080" viewBox="0 0 1080 1080" xml:space="preserve">
<desc>Created with Fabric.js 5.2.4</desc>
<defs>
</defs>
<g transform="matrix(1 0 0 1 540 540)" id="92df3579-4db8-477a-8798-2ad41d503bdd"  >
<rect style="stroke: none; stroke-width: 1; stroke-dasharray: none; stroke-linecap: butt; stroke-dashoffset: 0; stroke-linejoin: miter; stroke-miterlimit: 4; fill: rgb(255,255,255); fill-rule: nonzero; opacity: 1; visibility: hidden;" vector-effect="non-scaling-stroke"  x="-540" y="-540" rx="0" ry="0" width="1080" height="1080" />
</g>
<g transform="matrix(1 0 0 1 540 540)" id="c856a7d6-5cd7-4d68-9660-2d5918b0f662"  >
</g>
<g transform="matrix(3.99 0 0 3.99 540 540)" id="ab332142-03a5-4590-ba3f-2f17cb770f01"  >
<path style="stroke: rgb(0,0,0); stroke-width: 0; stroke-dasharray: none; stroke-linecap: butt; stroke-dashoffset: 0; stroke-linejoin: miter; stroke-miterlimit: 4; fill: rgb(255,255,255); fill-rule: nonzero; opacity: 1;" vector-effect="non-scaling-stroke"  transform=" translate(-128, -129.39)" d="M 127.778579 0 C 60.4203546 0 5.24030561 52.412282 0 119.013983 L 68.7236558 147.68805 C 74.5451924 143.665561 81.5845466 141.322185 89.1497766 141.322185 C 89.8324924 141.322185 90.5059824 141.340637 91.1702465 141.377541 L 121.735621 96.668877 L 121.735621 96.0415165 C 121.735621 69.1388208 143.425688 47.2457835 170.088511 47.2457835 C 196.751333 47.2457835 218.441401 69.1388208 218.441401 96.0415165 C 218.441401 122.944212 196.751333 144.846475 170.088511 144.846475 C 169.719475 144.846475 169.359666 144.83725 168.99063 144.828024 L 125.398299 176.205276 C 125.425977 176.786507 125.444428 177.367738 125.444428 177.939743 C 125.444428 198.144443 109.160732 214.575753 89.1497766 214.575753 C 71.5836817 214.575753 56.8868387 201.917832 53.5655182 185.163615 L 4.40997549 164.654462 C 19.6326942 218.967277 69.0834655 258.786219 127.778579 258.786219 C 198.596511 258.786219 256 200.847629 256 129.393109 C 256 57.9293643 198.596511 0 127.778579 0 Z M 80.3519677 196.332478 L 64.6033732 189.763644 C 67.389592 195.63131 72.2239585 200.539484 78.6359521 203.233444 C 92.4932392 209.064206 108.472481 202.430791 114.247888 188.435116 C 117.043333 181.663313 117.061785 174.190342 114.294018 167.400086 C 111.526251 160.609831 106.295171 155.31417 99.5879487 152.491048 C 92.9176301 149.695603 85.7767911 149.797088 79.5031858 152.186594 L 95.777656 158.976849 C 105.999942 163.276114 110.834309 175.122157 106.571948 185.436702 C 102.318812 195.751247 90.574254 200.631743 80.3519677 196.332478 Z M 202.30901 96.0424391 C 202.30901 78.1165345 187.85204 63.5211763 170.092201 63.5211763 C 152.323137 63.5211763 137.866167 78.1165345 137.866167 96.0424391 C 137.866167 113.968344 152.323137 128.554476 170.092201 128.554476 C 187.85204 128.554476 202.30901 113.968344 202.30901 96.0424391 Z M 145.938821 95.9870838 C 145.938821 82.4988323 156.779242 71.5661525 170.138331 71.5661525 C 183.506646 71.5661525 194.347066 82.4988323 194.347066 95.9870838 C 194.347066 109.475335 183.506646 120.408015 170.138331 120.408015 C 156.779242 120.408015 145.938821 109.475335 145.938821 95.9870838 Z" stroke-linecap="round" />
</g>
</svg>