<?xml version="1.0" encoding="UTF-8" standalone="no" ?>
<!DOCTYPE svg PUBLIC "-//W3C//DTD SVG 1.1//EN" "http://www.w3.org/Graphics/SVG/1.1/DTD/svg11.dtd">
<svg xmlns="http://www.w3.org/2000/svg" xmlns:xlink="http://www.w3.org/1999/xlink" version="1.1" width="1080" height="1080" viewBox="0 0 1080 1080" xml:space="preserve">
<desc>Created with Fabric.js 5.2.4</desc>
<defs>
</defs>
<rect x="0" y="0" width="100%" height="100%" fill="transparent"></rect>
<g transform="matrix(1 0 0 1 540 540)" id="43c29f76-52c1-4f38-a4b6-46946bd49762"  >
<rect style="stroke: none; stroke-width: 1; stroke-dasharray: none; stroke-linecap: butt; stroke-dashoffset: 0; stroke-linejoin: miter; stroke-miterlimit: 4; fill: rgb(255,255,255); fill-rule: nonzero; opacity: 1; visibility: hidden;" vector-effect="non-scaling-stroke"  x="-540" y="-540" rx="0" ry="0" width="1080" height="1080" />
</g>
<g transform="matrix(1 0 0 1 540 540)" id="e0925705-7da6-4d6f-9c9c-9b0b5aa47386"  >
</g>
<g transform="matrix(33.23 0 0 33.23 540 540)" id="f10f1043-793f-49c3-b518-beaaba5d9061"  >
<path style="stroke: rgb(0,0,0); stroke-width: 0; stroke-dasharray: none; stroke-linecap: butt; stroke-dashoffset: 0; stroke-linejoin: miter; stroke-miterlimit: 4; fill: rgb(255,255,255); fill-rule: nonzero; opacity: 1;" vector-effect="non-scaling-stroke"  transform=" translate(-16, -16)" d="M 23.749 30.005 C 23.63 30.067999999999998 23.639999999999997 30.087999999999997 23.753999999999998 30.029999999999998 C 23.790999999999997 30.014999999999997 23.822 29.993999999999996 23.848999999999997 29.968999999999998 C 23.848999999999997 29.947999999999997 23.848999999999997 29.947999999999997 23.748999999999995 30.005 z M 23.988999999999997 29.875 C 23.932 29.922 23.932 29.922 23.999999999999996 29.891 C 24.035999999999998 29.869999999999997 24.067999999999998 29.849999999999998 24.067999999999998 29.843999999999998 C 24.067999999999998 29.816999999999997 24.052 29.822999999999997 23.988999999999997 29.874999999999996 z M 24.144999999999996 29.781 C 24.087999999999997 29.828 24.087999999999997 29.828 24.155999999999995 29.796999999999997 C 24.192999999999994 29.775999999999996 24.223999999999997 29.753999999999998 24.223999999999997 29.749 C 24.223999999999997 29.724 24.208 29.729 24.144999999999996 29.781 z M 24.302999999999997 29.688 C 24.246 29.735 24.246 29.735 24.311999999999998 29.703 C 24.348999999999997 29.683 24.38 29.662 24.38 29.656 C 24.38 29.631 24.364 29.636 24.302999999999997 29.688 z M 24.516 29.547 C 24.406999999999996 29.62 24.369 29.667 24.468999999999998 29.615000000000002 C 24.535999999999998 29.574 24.65 29.484 24.63 29.484 C 24.587 29.5 24.551 29.527 24.515 29.547 z M 14.952999999999998 0.010999999999999233 C 14.879999999999997 0.015999999999999234 14.660999999999998 0.035999999999999234 14.468999999999998 0.051999999999999234 C 9.920999999999998 0.4639999999999992 5.665999999999997 2.911999999999999 2.9689999999999976 6.683 C 1.4779999999999975 8.75 0.5099999999999976 11.151 0.1449999999999978 13.672 C 0.015999999999997794 14.552000000000001 -2.192690473634684e-15 14.812000000000001 -2.192690473634684e-15 16.005000000000003 C -2.192690473634684e-15 17.197000000000003 0.015999999999997808 17.453000000000003 0.1449999999999978 18.333000000000002 C 1.0159999999999978 24.344 5.291999999999998 29.39 11.087999999999997 31.26 C 12.130999999999997 31.593 13.223999999999997 31.823 14.468999999999998 31.964000000000002 C 14.952999999999998 32.016000000000005 17.046 32.016000000000005 17.529999999999998 31.964000000000002 C 19.682 31.724000000000004 21.499 31.193 23.296999999999997 30.276000000000003 C 23.572999999999997 30.136000000000003 23.624999999999996 30.099000000000004 23.587999999999997 30.068000000000005 C 22.708 28.907000000000004 21.843999999999998 27.745000000000005 20.979 26.573000000000004 L 18.422 23.120000000000005 L 15.219000000000001 18.375000000000004 C 14.151000000000002 16.787000000000003 13.079 15.203000000000003 11.990000000000002 13.631000000000004 C 11.979000000000003 13.631000000000004 11.965000000000002 15.740000000000004 11.959000000000001 18.312000000000005 C 11.948000000000002 22.817000000000004 11.948000000000002 23.000000000000004 11.891000000000002 23.104000000000006 C 11.834000000000001 23.229000000000006 11.740000000000002 23.333000000000006 11.615000000000002 23.391000000000005 C 11.516000000000002 23.438000000000006 11.427000000000001 23.448000000000004 10.954000000000002 23.448000000000004 L 10.413000000000002 23.448000000000004 L 10.272000000000002 23.360000000000003 C 10.184000000000003 23.303000000000004 10.111000000000002 23.224000000000004 10.064000000000002 23.131000000000004 L 9.996000000000002 22.990000000000006 L 10.001000000000003 16.719000000000005 L 10.012000000000002 10.448000000000004 L 10.111000000000002 10.323000000000004 C 10.174000000000003 10.246000000000004 10.252000000000002 10.183000000000003 10.340000000000002 10.136000000000005 C 10.471000000000002 10.073000000000004 10.523000000000001 10.063000000000004 11.064000000000002 10.063000000000004 C 11.699000000000002 10.063000000000004 11.804000000000002 10.088000000000005 11.971000000000002 10.271000000000004 C 13.267000000000001 12.203000000000005 14.559000000000001 14.140000000000004 15.830000000000002 16.083000000000006 C 17.909000000000002 19.235000000000007 20.747 23.536000000000005 22.142000000000003 25.646000000000008 L 24.679000000000002 29.485000000000007 L 24.804000000000002 29.402000000000008 C 26.023000000000003 28.58900000000001 27.132 27.62100000000001 28.089000000000002 26.51700000000001 C 30.105000000000004 24.20900000000001 31.413000000000004 21.37000000000001 31.856 18.34000000000001 C 31.985000000000003 17.46000000000001 32.001000000000005 17.199000000000012 32.001000000000005 16.007000000000012 C 32.001000000000005 14.814000000000012 31.985000000000007 14.559000000000012 31.856000000000005 13.679000000000013 C 30.985000000000007 7.668000000000013 26.709000000000003 2.6220000000000123 20.913000000000004 0.7510000000000119 C 19.829000000000004 0.40800000000001185 18.714000000000006 0.17400000000001192 17.585000000000004 0.05400000000001193 C 17.282000000000004 0.023000000000011928 15.214000000000004 -0.013999999999988078 14.954000000000004 0.013000000000011926 z M 21.499999999999996 9.687999999999999 C 21.650999999999996 9.759999999999998 21.764999999999997 9.895999999999999 21.816999999999997 10.052 C 21.843999999999998 10.136 21.848999999999997 11.875 21.843999999999998 15.792 L 21.833 21.416 L 20.843999999999998 19.896 L 19.848999999999997 18.375 L 19.848999999999997 14.292 C 19.848999999999997 11.645 19.859999999999996 10.161 19.873999999999995 10.088000000000001 C 19.920999999999996 9.921000000000001 20.034999999999997 9.781 20.186999999999994 9.693000000000001 C 20.310999999999993 9.63 20.358999999999995 9.625000000000002 20.853999999999996 9.625000000000002 C 21.316999999999997 9.625000000000002 21.394999999999996 9.630000000000003 21.498999999999995 9.688000000000002 z" stroke-linecap="round" />
</g>
</svg>